<svg xmlns="http://www.w3.org/2000/svg" x="0" y="0" baseProfile="tiny" version="1" viewBox="9 3 940 530" xml:space="preserve"><!--Adapted from https://github.com/benhodgson/markedup-svg-worldmap --><rect width="100%" height="100%" x="9" y="3" fill="#fff"/><g cc="tr"><path d="M559 209l-3 3-8-1-5-3h-4l-6 4h-5l-1 3h-5l-3 2v2l2 1v1l-1 2 1 1 2-1 1 2v1l-1 1 1 2 5 1 4-2v-2h2l4 3 5-1 2-2 1 1v2h2l1-3 14-2h5l-1-2v-3l1-2-4-3v-3h-2l-4-2zM523 210v3l3-1 1-1v-1l-2-1-2 1z"/></g><g cc="gr"><path d="M507 218v1l4 2 2 1-1 1-2 1-1 1 1 2 3 1h1l1-3 1-2-5-6 1-2 1-1 2 2 1-1 1-2h5v-3l-2 2h-7l-4 2-2 4zM517 231h1l1 1h2l2-1 1 1-2 1h-4l-1-1h-1l1-1z"/></g><g cc="id"><path d="M782 324l-3 9-12 4-4-4h-2l4 14h5l7 3v2h3l4-7v-5l3-5 3 1-4-7v-5h-4zM832 339l-4 1-3 2 1 2 5 1v1l-3 2 1 5h2l1-5h2l1 5 11 9v7l4 4h1l1-25-6-4-6 4-3 1-3-2v-7l-2-1zM790 349l2 3-2 4v1h4l1-11 1 1 2 9 2 1 2-4-2-6-2-3 5-4-1-1-5 3h-1l-2-3 1-2 3-1 6 1h2l4-4-2-1-4 3h-2l-4-2h-3l-3 5-1 8-1 3zM814 331l-2 4 3 4h1l2-3v-1l-1-1-2-1-1-2zM820 345l-4 1-1 2 1 1 2-1 2-1 3 2 1-1-2-2-2-1zM722 318v2l7 11h2l14 24 6 1 3-9-5-3-1-4-26-22zM753 358l-3 2 1 2 9 2 4 1 2 2h5l2 2 3-1 2-1-4-2-3-3-8-2-10-2zM806 368l-5 5 1 1 2-1 2-2 5-1-1-1-4-1zM792 368l-1 1 5 1 3-2-2-1-3 1-1-1-1 1zM782 367l-2 1 1 2 3-2-2-1zM786 366v2l2 1 1-2-1-1h-2zM791 371h-3l3 2h2l-2-2z"/></g><g cc="sb"><path d="M895 365l1 2 1 1 1-1-1-2h-2zM897 370l-1 2 1 2h2v-1l-2-3zM900 369l1 2 2 3 1-2-1-2-3-1zM905 373l1 3 1 2 1-3-3-2zM907 380l-1 1 2 2h1l-1-3h-1zM903 384l-2 1 2 2 1-1-1-2z"/></g><g cc="pg"><path d="M853 348l-1 25h4l5-6h3l3 3 1 6 8 5 2-1v-3l-7-5-3-7 3-1-2-4-4-1-1-4-10-6-1-1zM883 355h-1l-1 3-1 1-6 1v2h6l4-3-1-4zM880 349v1l4 5 1 2h1l1-3-2-1-5-4zM889 360l2 3 2 2v-3l-2-3-2 1z"/></g><g cc="sj"><path d="M488 54l-1-2-4 2h-7l-1 4 4 3h2l2-4 2 1-1 3-1 4 1 3 4-6 5-5-2-2-3-1zM490 47l-3 3 2 2h3l2 2 3 2 5-3 3-2-1-2-3-2-2 2-2-2h-1l-2 4-2-3v-1h-2zM497 59l-2 2-2 2 1 1 1 1 4-1 1-2-1-2-2-1z"/></g><g cc="jp"><path d="M808 207l-5 6 1 1h3l4-3 3-1 3 4 2-1 1-4h4l4-4-2-8-1-5 2-1-4-8h-2l-2 3v3l1 1v6l-3 4-1-1-2 3v3l1 1-1 2-2-2h-1l-2 1h-1zM816 163l-1 2 1 3 1 1v4l-2 1-1 3 4 6 2-1 1-2-3-2 2-2h2l1 1v-3l4-3 2-1-2-3v-1l-2 1-1 2-3-1-3-2-2-3zM831 160l-3 4v2l2-1 3-3-2-2zM834 155l-1 3 1 1 1-1 2-3v-1l-3 1zM803 216l-1 2v2h2l1 5 1 2 2-2 1-3-3-4-3-2z"/><path d="M812 213l-3 3v3l1 1 4-4-1-3h-1z"/></g><path d="M787 248l-3 3v5l3 4 1-1-1-11z" cc="tw"/><path d="M778 194l2 1 1 6 3 1 4-4-1-1v-5l3-4-2-2 1-2 1-3h-3l-2 6h-4l-3 4v3z" cc="kp"/><path d="M788 198l7 5 1 5-1 3-3 3h-2l-3-6-1-3 1-1v-1l-2-1 3-4z" cc="kr"/><path d="M729 304l-2-5 2-3-2-3h-2v-6l-3-5-1 1-2 3h-2l-1-1-1-4-1-3-7-7 2-1v-5l2-4 2-10 3-3v-4l2 1 4 5-3 5 2 5 4 1 1 5 6 1-2 3-7 2-1 5 5 7 1 3-2 2 1 1 3 6 1 6-2 2z" cc="mm"/><path d="M730 270l3 5v5h1l6-2h1l6 7-1 5h-2l-1-1h-2l-2 4v2l2 1v2l-1 1-5-3v-3h-2v1l-1 13 3 5 5 5v2l-3-1-2-3h-3l-3-3-1-3 1-2 1-2 1-3v-7l-4-5v-1l1-1v-5l-5-6 1-4 6-3z" cc="th"/><g cc="ru"><path d="M740 13l2 2 2-1 1-3-4-3-3 2-6 1v2l-6 1v4l7 6 2-1v-5l5-1-1-2-2-2h3z"/><path d="M818 73l2 6 3 1 4-6-2-3 1-4h5l-1 3v9l-8 19 1 4v7l14 20 3 1v-17l3-2-3-7 2-3-5-7h-3l-1-12 8-2v-4l4-1 2 2 3-11 5-8 4-2h3v-3l-5-1-8-6 4-4-3-7 2-3 3 4 8 3 8 1 1-4-4-4 5-7-11-3-3 5-3-4-20-7-19 3-3 2v1l4 2v5l-8-3-16 6-2-6h-12l-5 6-17-4-17 3-2 5 3 1v4l-16 1 1 5-15-2 4-7-15-1 1 7-5 3-4-4-16 3-6 5-1 4h-4v-4l13-11v-8l-9-2-10 4-5-5h-2l-2 5 2 2-15 8-12 10-8 10v4l8 4-4 3-8-3-4 3-5-6-1 2 6 18 1 1 4-2 2 1v3l-3-1-3 2 2 3-1 9h-8l-1-2 5-3 1-8-5-6-2-12-8-1-1 4 2 2-3 3 1 7 5 2 1 6-5-3-13-2-1 4-10 3-1-2-13 7v5h-5l1-3v-4l-5-1-3 1 3 5 2 4v2h-4l-1-1-4 4 2 4-8-1 2 4v1h-5l-3-2-1-6-5-2v-3l11 2 6 1 3-4-3-4-16-6-5 1-2 2v4h3l-1 6 7 17-5 8v2l2 2-2 2h-2l1 7 2 3v3h3l4 2 5 6v2l-2 3 4-1 3 1 5 7 11 1-1 7-4 4 1 1-4 4-1 4 3 3 7 3 3-2 19 7 1-2-4-4v-5h-3l1-4 4-5-7-6v-7l8-5h9l2 3 9 1 7-4-4-4 1-7 17-9 14 6 5-4 13 13 10-1 3 4 10 1 6-9 8 4h5l4-3-4-3 3-5 10 3 2 4h4l2-1 7-1 1 2 7 1 6-6 11 1 3-1 1-6-3-7 3-3h10l10 11 13 8h3l1-4 4-2 1 16h-4v4l2 3v4l1 1 1-3 2 1 1 1 4-1 5-14v-16l-5-13-8-9h-3v3l-9-3 3-7 3-19 12-3 5-4h6l-1 2 1 3 6-6h3l-1-3-5-1 4-12 4-4z"/><path d="M799 123v6l7 12 3 10 5 9 2 1 1-1 1-3-7-7v-4l2-1v-2l-13-19-1-1zM746 23l-3-1-2 3-1 2h5l3-2-2-2zM747 10l2 3h7l2-3-1-2-2-1-2 2-5 1h-1zM548 39h2l-2 3v3l-2 1h-3l-2-2 1-2 1-1h2l3-2zM584 52v2l-4 4-8 2-7 11-2 4 7 1 1-4 2-6 6-3 4-4 4-1h1v-5l-4-1zM562 77l5 1 1 5 4 4-1 3h-2l-3-2-5-1-2-2v-2l3-1v-5zM554 37v2l2 1h2l3-2v-1h-4l-1-1-2 1zM564 37l1 3h3l2-1-1-2-3-1-2 1zM574 34l-2-1-2 2 1 2 1 2 2-2 1-2-1-1zM635 18l-2-1h-3v1l-3 2-2 1-1 2h5l6-5zM640 19l-1 2h-2l-4 3-1 3h2l2-2 3 3 3-2 2-2-1-3-1-2h-2zM645 21l1 4 2 5 2-4 4-1v-2l-2-2h-7zM837 4l-3-1-4 1-1 3 2 2 5-2 2-1-1-2zM840 132l-1 2v2h1l2-3-2-1zM838 138v4l1 1 1-2v-3h-2zM507 152h-2l-3 3v1l1 1h2l3-3-1-2z"/></g><path d="M681 308v5h-1v4l3 2 3-2-1-5v-2l-3-3-1 1z" cc="lk"/><path d="M671 313l5-2 2-10v-12l16-17v-4l3-1v-5l-4-7 2-3 5 4h5v2l-1 2v1h3v4h1l3-4 1-11 3-2 1-4-2-3h-2l-10 6 1 4h-6l-3-3h-1l1 4-14-1-9-4-1-4-5-4v-7l-4-5-9 1v4l5 4-8 15-5 1-1 2 5 4v5h-5l-1 2h5v2l-3 2 2 3 3 2 3-2 1-3 1-1 2 2-1 4-1 2 1 3 16 34z" cc="in"/><g cc="it"><path d="M478 213l-3 2v5h2l2-1v-5l-1-1zM472 197v3l2 3h4l8 10 5 1 4 3v7l2-1 1-4v-3h2l1-1-7-4-7-6-2-4-1-3 3-1v-3l-2-1h-5l-2 4h-1l-2-1-3 1zM492 223l-1-1-5 1v1l5 3 2 1-1-5z"/></g><path d="M493 230l-2 1v2h2v-3z" cc="mt"/><path d="M538 340l3 2v3h-5v-3l2-2z" cc="rw"/><path d="M538 339l3 3 2-1 5-1h1l1-2 2-6-2-5h-8v2l1 1v2l-5 7z" cc="ug"/><path d="M551 327l2 5-3 6v2l16 10 5-7-3-3v-10l3-3-5 2h-3l-6-5-2-1h-4v4z" cc="ke"/><path d="M547 379l3 4v4l1 2 4-5-1-6-2-1-2-10h-3l1 7-1 5z" cc="mw"/><path d="M541 413l3 3 6-4 1-6v-10l10-8h2l6-6-1-12-16 2v4l3 2 1 7-6 5-1-3v-4l-3-3-8 3 8 4v11l-5 7v8z" cc="mz"/><path d="M525 392l9 10 7 2 4-7v-10l-8-3-3 1-4 6h-6l1 1z" cc="zw"/><path d="M497 422h3l2 2h5l1-13v-9h3l1-9 7-1 3-2h-4l-7 1-6-3h-19l1 6 6 9-1 5v2l5 12z" cc="na"/><path d="M509 411l2 1-1 6h3l5-4h6l1-4 8-7-9-10v-2h-1l-3 2h-7l-1 9-3 1v8z" cc="bw"/><path d="M541 414h-3l-1 3 2 2h3l1-3-2-2z" cc="sz"/><path d="M527 425l3-2h2l2 2-1 2-2 2h-4v-4z" cc="ls"/><path d="M534 404l-8 7-2 4h-6l-5 4h-4l1-6-2-1v13h-7l-1-2h-3l2 7 5 4-3 4 2 4 4 2 4-3h11l1-1 5-1 16-16v-5l-2 2h-3l-3-2 2-4 3-1-1-8-6-1zm-4 18h2l2 3v3l-3 1v1h-4l-2-3 2-2 3-3z" cc="za"/><path d="M522 243h3l5 2h2l3-3h2l2 2h4v-1l2 6 1 2v3l-1 1-1-1-2-6h-2v2l1 4 9 11 1 5-3 3h-26v-30z" cc="eg"/><path d="M475 227l5-2 2 1v2l-1 1 1 2v4l-1 1 1 1 3 2-3 4h-1v4h-1l-1-1v-3l-4-4v-3l1-1-1-8z" cc="tn"/><path d="M480 248h2v-4h1l3-5 8 2 2 4 8 3 4-2-1-1-1-2v-1l3-3h5l3 3 4 1 1 37h-4l-20-11-2 1-9-2-2-3h-3l-2-3v-14z" cc="ly"/><path d="M474 227l-4-1-17 3-4 3 2 12h-6l-4 7-10 2v5l32 24h5l18-14-1-2h-4l-2-4v-14l-1-1v-4l-4-4v-4l1-1v-4l-1-3z" cc="dz"/><path d="M536 346h4l-1 4-1 1h-1l-1-3v-2z" cc="bi"/><path d="M551 371l17-2-4-7v-8l1-3-16-11-6 1-1 2-1 3-1 4-1 1-2 1 4 11 5 3h4l1 5z" cc="tz"/><path d="M496 324l4 5 2-2h3l1-2 3-2 6 4 3-4 13 1-12-13 2-1v-2l-3-1h-4l-7 6v3h-5v1h-4l-3 5 1 2z" cc="cf"/><path d="M489 356h11l2 2v3h6l1-3h2l1 1h3l1 10 5 1 13 6 1 1h2v-4l-5-2v-3l3-5 5-1-5-14v-6l7-10v-2h-1v-3h-1l-1-2-21-1-3 4-6-4-3 1-1 13-4 3-1 3v4l-7 5h-2v1l-2 2z" cc="cd"/><path d="M515 385l3 4h5l1 1h6l4-6 12-5 1-5-1-7-7-4h-4l-2 5v2l5 3v5h-4l-1-1-12-6v4l-6 1v9z" cc="zm"/><g cc="ye"><path d="M572 289l1 5v4l4 3 24-10 1-3-4-7-10 3-6 6-6-4-4 3zM600 300l2 2 3-2h1l-2-1h-2l-2 1z"/></g><g cc="ao"><path d="M487 353l1 2 3-2-1-2h-1l-2 2zM489 357l3 12v4l-5 6-1 9h19l7 2 5-1-3-3v-11h6v-5h-5l-1-10h-2l-1-1h-1l-2 3h-6l-1-1v-2l-2-2h-10z"/></g><path d="M448 205h-12l-3-1h-1l-2 3 1 3 5 1v2l-2 12v2l4 2h4l8-2 4-5v-5l7-6v-3h-6l-7-3z" cc="es"/><path d="M431 211l-1 9-1 1v1l1 3-1 2h5l-1-2 2-12v-2h-4z" cc="pt"/><path d="M592 373l-2 5-3 6-7 1-3 3 1 10-4 5v7l4 4h4l4-3-1-5 9-16-2-2 2-3h2v-1l-1-8-1-3h-2z" cc="mg"/><path d="M674 170l6-8 7 4 4 1 6-5-4-3 3-4 8 3 2 4h5l3-2h5l1 2 9 1 5-6 8 1-1 7 4 1 4-2 4 2v2h-3l-3 6-3 1-10 13-10 4-6 1-5-4-7 4-7-2-2-5-12-1-6-11h-4l-1-4z" cc="mn"/><g cc="cn"><path d="M670 170l-3 9h-5l-5 11 4 5-8 12-5-1-3 4 1 2 3 1 2 4 4 1 10 13v8l6 3 5-1 8 4 9 3 4-1h5l10-7 3 1 1 3h3l4 6-3 5 2 4 4 2 1 4 5 1 1-2 7-4h4l6 6 3-2 2 1 1 2 2 1 3-4 10-4 9-11 3-10v-7l-4-1 2-2v-4l-10-10v-5l3-3 3-1v-3h-7l-2 4-3-1-4-4 3-7 3-4h3v6l2 2 4-5h2l-1-3 4-5h3l2-5 2-1v-4l-2-2v-5l4-1v-14l-3 2-1 4h-5l-13-8-9-11h-10l-2 2 3 7-1 7-4 1h-2v7h2l4-2 5 3v2l-4 1-3 6h-2l-10 13-10 5h-8l-4-3-7 4-7-3-2-4-12-1-7-11h-3l-2-5h-3zM760 270l-3 1-1 2 1 3h2l3-2v-3l-2-1z"/></g><g cc="fr"><path d="M460 179h-2l-4 5h-2l-1-1h-1l-1 3h-7v2l5 2 5 5v4l-3 5 6 3h6l2-2h4l1 1h4l2-3-3-2v-4l-1-2h-2v-1l4-5v-3l-3-2h-1l-8-5zM478 207l-2 2v2l1 1h1v-5z"/></g><g cc="nz"><path d="M913 482l1 12-1 5-6 4 1 5v5l1 1 15-12v-3h-4l-5-17h-2zM902 508l3 5-8 8v3l-6 1-8 8-9-4v-2l15-7 13-12z"/></g><g cc="au"><path d="M761 428v25l-4 3v3l5 3 13-2h7l2-4 15-3 11 4-1 4 1 4 9-1v2l-5 4 1 1 4-1-1 12 8 5 4-1 2 2 13-2 11-19 5-1 8-16 2-13-5-7 2-1-4-14-5-3 1-18-4-3-2-10h-2l-7 24h-4l-9-9 5-13-9-2-10 3-3 8-5 1v-5l-19 11 1 4-3 4h-7l-16 7-5 14zM826 496l-2 7v5h6l6-9-10-3z"/></g><g cc="fk"><path d="M308 508h-3l-2 2 2 2 3-4zM311 507l-1 3-3 2v1l5-2 1-2-2-2z"/></g><g cc="cl"><path d="M285 514l-4 9 7 1v-6l-3-4zM284 513l-4 3v4l-6-3-7-10-2-3 3-4v-4l-3-1-3-2 1-3 3-1 1-14-5-3-4-74 1-2 7 15h2v2l-3 4-3 18 5 13-2 11 7 30 1 18 5 6h6z"/><path d="M262 475l-1 2 1 3 1 1 1-5-2-1z"/></g><g cc="ar"><path d="M305 418l2 2-7 11-3 3 1 12 6 7-5 9-3 1h-4l1 7-7 2 2 5-4 13 5 4-3 6-4 7 2 5-6 1-4-6-1-18-7-30 2-11-5-13 3-18 3-3-1-3 4-3h8l5 5h5l5 4-1 3v4h8l3-6zM289 519v6l5-1 3-2-6-2-2-1z"/></g><path d="M300 432l-2 2 1 12 7 2 8-8-14-8z" cc="uy"/><path d="M292 400l2 2v5h6l5 6-1 5-3 5h-6v-2l2-5-7-4h-5l-4-4 3-8h8z" cc="py"/><path d="M259 373l8-4h3l1 8 13 4 2 7h5l2 6-1 5h-9l-3 8h-8l-4 3h-2l-6-15 1-2 1-11-2-6-1-3z" cc="bo"/><path d="M225 350l-2 1v4l17 30 18 12 2-5 1-10-1-6-5-8-3 1-1 1-6-6 2-8 6-4v-4l-7-1-4-5-2-1 1 3-9 11-7-2v-3z" cc="pe"/><path d="M230 336l-5 3v4l-1 2 3 2-1 2v3l6 2 8-10v-3h-4l-6-5z" cc="ec"/><path d="M302 322l6 3-3 7-1 1-3-2v-6l1-3z" cc="gf"/><path d="M293 321l2 2 3-2h3v1l-1 3-1 6-5 2v-4l-4-3v-2l3-3z" cc="sr"/><path d="M285 314l7 7-3 3v2l4 4v4l-7 2-4-5 1-7-1-4 3-6z" cc="gy"/><path d="M314 439l6-12 1-10 11-8h7l5-8 1-17-2-5 12-11 1-12-17-9-20-6-10-1 3-5-1-8-2-1-3 6-2 2-4-2-14 5-5-6 1-6-4 5-5-3-1 1v2l5 2-7 7h-4l-4-4h-4l-1 5 3 3-3 10h-4l-6 3-1 8 5 5 1-1 3-1 3 5 9-4h3l2 9 13 3 2 7h5l2 7-1 5 2 3v4h5l6 6-1 5 3 3-7 11 13 8z" cc="br"/><path d="M250 306l1 3 3 1 1-5 3-4 4 4 8 2 6-1 5 6 3 2-3 5 1 5-2 2-3 2-4-2-2 1v3l4 2-3 3-2 3h-4l-3-4-1-15-12-4-2-6 2-3z" cc="ve"/><path d="M254 300h-2l-14 11-1 4h-2l1 9-5 11 5 5h7l4 7h7v5h2l3-9-3-3 1-6 5-1-1-13-11-4-3-7 7-9z" cc="co"/><path d="M221 310l-2 4 5 1 3 1v-4l4-1 3 1 1 2h1l1-3-3-2-3-1-3 2-3 1-3-1h-1z" cc="pa"/><path d="M217 305l2 3 1 1-2 5-3-2-4-5v-3l6 1z" cc="cr"/><path d="M218 292l2 1v4l-3 7h-6l-2-4 2-4 4-4h3z" cc="ni"/><path d="M208 289l9-1 3 4-2-1h-3l-5 4-2 5-1-1v-5l-2-1 3-4z" cc="hn"/><path d="M202 296l4 3v-4l-2-2-2 3z" cc="sv"/><path d="M440 167l-1 6-8 3h-3l-2-2v-1l4-2-1-3v-3h4l1-3v3l3 2h3z" cc="ie"/><path d="M406 117l-2-1-2 2-3 2 1 1 2 1v2l-1 1h1l2 1v3l5 1 2 1h3l5-2 4-5v-3l-3-2-2-2v1l-2 1h-1l-2-2-2 1-2 2-2 2-1-1v-2l1-1-1-1z" cc="is"/><path d="M321 50l-1 2 2 3-1 2 4 5 4-2h6l6 7 5 12-4 7 5-1 3 2v3l-6 1 3 3 4 1-9 12-1 7 2 6-1 3 2 8 5 5h1l3-1v5l2 2h4l3-10 8-10 12-5 8-10 3 2h8l5-6 8-3 1-5-5-4-4-1-2-6 5-3 8 5 3-3-5-3 10-12-2-6h-4l1-5 6-2 11-10-3-4-13 1-6 7 3-8-4-2-2 5-4-3-10 1 3-4 16-1-4-5-17-4-7 1v4l-7-2v-3l-5 1-1 3 5 2-6 4-4-5-6-1v4h-6l-2-5-9-1-5 2v4l-7-1-3 1v6l-7 2-4-3-2 4 4 3h6l1 2-5 2-5-2z" cc="gl"/><g cc="ca"><path d="M158 49l2 3 1 4 5 1 4-4 3 2h8l6-2 1 8h4v-3h3l9 10 6 4-3 5 1 1 11 2v5l3 1 1-8 5-1 3 5 8 4h3l3-3v-4l5-3 1 4-4 7 1 3 2-3 4-4 1-5-3-5 1-3 6-3 3 2v18l4-4 3 2-4 6 5 1 6-10 6 5-2 11-6 3-5-3-10 2 1 3-2 4-8 2-9 7-7 10-1 3 5 2 2 6 7 7 12 5-3 11v4l3 2 4-6v-10h7l3-6v-8l8-16 10 3 5 8-2 7 4 2 10-6 2 18 9 10 1 6-10 2-5 5-10-2h-5l-9 7 6-2 6-1 1 2-1 5v5l3 2 3-1 1-2h2l-3 6h-6l-3 5h-3l-1-3 5-6-6 2-1-8-1-1-6 2v4h-12l-10 8-14 4-2-2 7-10-4-4-2-5-5-4h-6l-9-7-71-12-1-4-7-6v-5l1-5v-2l-3-3v-4l6-4-4-22h-5l-5-7 27-46zM134 128l-2 4 1 2 1 1v1h-2l1 3 1 2 1-1-1-4 1-2 1-3-1-2-1-1z"/><path d="M139 148l-1 1 3 3v4l3 3 3-1v-4l-3-2-5-4zM223 48l-9 2-5 4 1 5 9 3-2 4-7-4-2 4 5 3-1 4 7 2h8l1-3 6 7 4-2v-4l3 2 1-5-4-2V54l-3-2-3 4-9-8zM266 102l-4 5v6l3-2h5l3 3 3-3-10-9zM204 36v4l-8 8 2 7 6-2 3-5 8-3h7l-5-6-3 2-2-1-1-2-2-3-5 1zM214 24l-2 3 9 3 3-4 1 3h3l4-5-5-1-2-2-3 3h-8zM283 62l-5-1-6 2-3 5 1 11 10 1 9 4 6 8 5-1-1 7-5 8-5 2-3-1-2-1-3 3 1 4h4l5-2 4 10 10 6 7-8-6-10 3-3 5 7 8-7-1-3-6 1-4-10 4-7-8-8-4 3-4-9-8 2-3-11-6 5-1 6h-4l1-6 5-7z"/><path d="M293 66l-2 1 2 3 7 1-5-5h-2zM269 38l-3 1 1 4 4 3v2l-1 1 1 5 17 5 4 2 5-4-5-5-6 2-7-1-2-3-1-7-4-2-3-3z"/><path d="M286 40v2l-5 1 1 3 6 2 6 1 4 3 5-3-3-3h4l2-3h6v-2l-3-2v-2l10 1 13-5-5-2 2-2h10l2-1-22-8-5-2-5 4-6-5h-4v4l-5-4-4 2v2l8 2-1 3 4 3 10-3v4l-8 4-5-4h-4l4 7-2 1-3-3-3 1 3 5h3l-1 4-3-1-4-4h-2zM318 171l-11 10 1 3 13 4 2-3-1-5h-4l-3-2 4-4-1-3zM264 56l-5 4 1 4h3l1-2 2 2h2l6-5-10-3z"/><path d="M274 23v3h6l2 2v1l-6 1 4 5 5 1 7-3-10-16-3 2v3l-3-1-2 2zM268 28l2 2-2 3 1 2 5-2v-2l-3-4-3 1zM229 30l-7 3v2l9 4-2 2 2 3 5-3h5l2 4 4-4-1-3-3 1-1-5 2-2h-2l-2 1-1 1v3l-1 2-3-1-1-4-5-4zM260 40l-4 1-3 2h5l-1 4 1 2h1l4-6-3-3zM250 58l-3-2-2 2 3 5 1 5 6-4v-6l3-2-3-2h-4l-1 4z"/></g><g cc="us"><path d="M93 45l-8 2 1 9 10 3v2l-13 4-8 13 3 13 4 3 3-3 1 2-4 5-16 7-10 3-1 4 24-7 10-3 9-11 10-7-5 9h6l10-4 1 7 7 2 7 6v5l-1 2 2 4h1l1-8h2v20l5-4-4-21h-5l-5-7 28-47-28-22-31 6-1 10 6 4-2 6-9-7zM149 158l-1 4-4-2h-1l-1 4-13 28 4 24 4 2v6h9l7 6 16 2 2 8 2 1 4-3 3 1 2 12 4 2 4-6 11-8 7 3 6 1v-4h12l3 3v6l-1 4 1 6h4l4-6-2-3-1-6 2-6 10-9 8-2-1-8 11-11 11-2-2-6 10-6v-8l-1-1-3 2-1 5h-12l-10 6-15 5-3-3 7-10-3-4-3-4-5-4h-5l-10-7-70-12zM22 260l-1 5 1 2 3-1 2-3-4-3h-1zM69 53l4 7 2-1v-2l-6-4zM50 110l-1 3h3v-2l-2-1zM46 112l-4 2 1 2 1-1 4-2-2-1zM28 114h-3v4l3-4zM22 114l-3-1-1 2 2 2 2-3zM12 112l-1-2h-1v3l1 1 1-2zM10 249v2l2 1 1-1-3-2zM15 252l-2 1 2 3 2-2-2-2zM19 255l-2 3 1 1 2-1-1-3z"/></g><g cc="gb"><path d="M438 161l-3 1v3l2 1h3v-2l-2-3z"/><path d="M446 149l-2 3 1 1h4v2l-1 1 1 4 2 5 2 4 3 1 1 2v2l-2 2 1 1-1 2-2 1-5-1-8 4-3-2 8-4h-1l-4-1 2-3 1-3 3-1-1-5h-3l-1-2v-4h-2l2-7 4-3 1 1z"/></g><path d="M137 225l5 16-2 1v3l5 3v6l5 5-2-15-3-9v-7h3l1 2-1 6 13 26v9l10 12 12 5 5-3 6 6 4-4-1-5 5-1 2 1 2-2h3l5-9-3-2-10 2-2 7-6 1-6-3-3-10 2-12-5-3-2-11-2-1-3 3-4-2-2-7-15-2-8-6h-8z" cc="mx"/><path d="M205 282v4l3-5h-2l-1 1z" cc="bz"/><path d="M195 292l6 4 6-8-1-1h-2v-5h-2l-4 1 1 4-4 5z" cc="gt"/><path d="M448 232h-11l-3 5-5 3-4 11-8 5-12 20h11l1-6h3v-8h10v-10l10-2 4-7h6l-2-11z" cc="ma"/><path d="M405 277l2 3v12l3-2 2-1 3 1 4 5 3-2h17l-4-28h4l-8-6v4h-10v8h-3l-1 5-12 1z" cc="mr"/><g cc="ee"><path d="M518 144l-6-1-3 3v1l2 2 7 2v-7zM507 148h-3l1 1 2 1v-2z"/></g><g cc="sn"><path d="M410 290l-4 3-1 2v1l1 1h8l1 1-1 2 3 2h5v-1l-3-5-4-5-3-1h-2z"/><path d="M407 300l1 3 1-2 8 1-4-2h-6z"/></g><path d="M407 298v1h7v-2l-2 1h-5z" cc="gm"/><path d="M409 305l1 2 4-3v-1l-5-1v3z" cc="gw"/><path d="M410 308l3 5 4-4h4l4 4 3 2 1-2h1v-5l-2-5h-13v2l-5 3z" cc="gn"/><path d="M414 313l6 6 4-5-3-4h-3l-4 3z" cc="sl"/><path d="M420 319l11 8v-6l-3-4-4-3-4 5z" cc="lr"/><path d="M432 327l4-3 6-1 5 1-3-4v-10h-5l-2-2h-7l1 5-1 1-2 2 4 5v6z" cc="ci"/><path d="M419 296l4-2h17l-4-28h4l22 17h3l-1 9-14 2-10 8-2 5h-8l-2-5h-5v-2l-4-4z" cc="ml"/><path d="M451 294h3l6 8-5 5-4-1h-6l-1 3h-4l-1-2 1-5 11-8z" cc="bf"/><path d="M461 302h2l3-4h4l4 2 8 1 7-3 3-2v-3l5-5 1-11-3-6-8-2-19 14h-2l-1 10-10 1 6 8z" cc="ne"/><path d="M444 317l1 3 3 4h2l4-2v-15l-3-1-5 1-2 10z" cc="gh"/><path d="M455 321l3-1v-11l-2-2h-1v14z" cc="tg"/><path d="M459 319h2v-6l3-3v-7h-3l-4 3 2 3v10z" cc="bj"/><path d="M462 319l3 1 5 5h4l3-1 1-4 4-2h4l7-14v-3l-3-3-7 3h-9l-5-2h-3l-1 3-1 8-2 4v5z" cc="ng"/><path d="M493 296v-3l5-5 1-11-3-6 2-1 21 11v11l-4 3v6l3 5h-4l-8 7v2h-5v1l-3-1-2-3-2-1v-1l2-2v-7h-2l-4-3 3-2z" cc="td"/><path d="M520 292v-11h3v-7h25l4-3 8 12-4 5v8l-7 15-3 1 1 4h3l4 6h-3l-1 2v2h-10l-1-2h-6l-13-13h2v-3l-3-2-3-5v-5l4-4z" cc="sd"/><path d="M478 324l3 3v5l17-1 2-1-5-6-1-2 3-6-2-4-2-1v-2l2-1 1-6-2-1v4l-8 14h-4l-3 2-1 3z" cc="cm"/><path d="M557 295l-1-6 4-5 1 1 2 7 10 6-2 3-7-6h-7z" cc="er"/><path d="M571 302v3h4v-5l-2-1-2 3z" cc="dj"/><path d="M549 312l8-16h7l6 5v5h5v3l8 4 5 1-9 10-13 4h-3l-6-5-2-1-5-7h-2l-1-2 2-1z" cc="et"/><g cc="so"><path d="M592 304l4-2 2 1v4l-4 12-22 23-3-2v-10l3-3 7-2 11-11 2-3 1-3-1-4z"/><path d="M576 305l4 3h1l10-4 1 4v3l-3 2h-5l-8-5v-3z"/></g><path d="M486 333v2h-5l-4 7 8 9 2-2v-2l-1-1v-1l3-2 3 2h3v-10h-5v-2h-4z" cc="ga"/><path d="M481 333v1h4v-1h-4z" cc="gq"/><path d="M491 333v1h5v12h-4l-3-2-2 2 1 1v2l-2 2v2l3-3h2v2l2 1 6-6v-3l1-3 4-3 1-10h-3l-3 4-8 1z" cc="cg"/><path d="M907 420l-1 2 5 7 2 1 1-3-7-7z" cc="nc"/><g cc="my"><path d="M733 315l2 5v6l3 4 6 4h3l-1-4-2-5-3-7v1h-4l-3-4h-1zM764 333l3 3 12-4 2-8 5-1 5-3-6-5-2-2-3 5 1 4-1 2-4-1-8 7v3h-4z"/></g><path d="M780 319l-3 4h2l2-1-1-3z" cc="bn"/><path d="M949 412l-2 2v2l2 1v-5z" cc="fj"/><g cc="ph"><path d="M791 273l-2 2v6l4 7 1 1 2-1 3 1v2l2 1 1-2-1-2-2-1-3-1-2-3 2-3v-3l-1-3-4-1zM789 298v1l-1 2-5 6 1 2 2-1 6-7-3-3zM797 295v5l2 2 1 4h1l1-2-1-1-1-7-3-1zM802 297v5l1 1 2-2v-4h-3zM803 293l2 3 1 2h2l-1-4-1-1h-3zM807 302v3l-3 3h-3l-3 3v2l3-1 2-1 2 4 3 2h1l1-2-3-2 2-1 1 1 1-2-1-2v-4l-3-3zM793 290v3l2 1 1-1-2-3h-1z"/></g><path d="M277 283l-2 1 1 1 1-1v-1z" cc="ag"/><path d="M279 285l-1 2 1 1 2-1-2-2z" cc="gp"/><path d="M282 290l-1 1 1 2 1-1-1-2z" cc="dm"/><path d="M282 294l-1 2 1 1 2-1-2-2z" cc="mq"/><path d="M282 298l-1 1 1 2 1-1-1-2z" cc="lc"/><path d="M281 301l-2 1 1 1h1l1-1-1-1z" cc="gd"/><path d="M282 305l-1 1h-1v1l2 2 1-1 1-2-1-1h-1z" cc="tt"/><path d="M271 281l-3-1-2 2 1 1h4v-2z" cc="pr"/><path d="M263 280l-5-3-3-1-1 6 1 2 2-2h6v-2z" cc="do"/><path d="M251 275l3 1v6h-4l-1 1h-1l-1-2 4-1v-2l-2-1 2-2z" cc="ht"/><path d="M221 267v1h5l3-1v1l5 1 5 4-1 2v1l4 1 4-1 2-2-3-1-13-8h-4l-7 2z" cc="cu"/><g cc="bs"><path d="M240 259h-2v2l2 2 1-2-1-2zM242 263l-2 1 2 2 1-1-1-2zM248 265h-2v1l1 2 2-2-1-1zM247 262l-3-1-1-3h1l2 2 1 1v1zM244 256h-2v-2l-2-1 2-1 1 1 2 1-1 2z"/></g><path d="M239 280h-4v1l2 2h3l1-2-2-1z" cc="jm"/><path d="M577 189l4-2h4l1 7h-3l-2 3 3 5 4 2v2h1l2-2 2 1 1 2h3v-3l-2-5-1-4 5-2 7 1 4 4 10-1 5 8h7l2-3h2v-4h3l2 2 2-4 15 2 2-3-4-5 6-13 4 1 4-8-7-1-3-3-10 1-13-12-5 4-14-7-17 9v6l4 4-8 5-10-1-2-3h-8l-7 5v6l7 6z" cc="kz"/><path d="M594 208l-1 2h-4v4l5 3-2 4v2h2l2-3 6-2 12 5v3l7 1 7-8-1-2-5-2-14-9v-3h-6l-2 5h-6z" cc="tm"/><path d="M629 219h3v-5l-3-2 5-6h2l2 2 5-2-7-2v-2l-2 1-2 3h-7l-5-8-10 1-4-5-6-1-5 2 3 9v3h2l2-5h6l1 4 13 9 6 1 1 3z" cc="uz"/><path d="M630 212l4-5h2v1l-2 1v1l2 1 6 1 2-1h1v2h4l2 4-1 1h-1v-1h-5v3l-2-1v-3l-2-2-3 3v1l-3 1h-1v-5l-3-2z" cc="tj"/><path d="M637 199l-1 3 1 1 8 3-7 3h-1l-2 1 1 1h6l2-1 4-4h4l5-7-14-2-2 5-2-3h-2z" cc="kg"/><path d="M614 227l2 13h4v3l-3 2 5 4 11-3 1-5 6-4 3-9 1-2-2-4 7-3-1-2-3 1v2h-4v-3l-1-2-3 2 1 2-4 1h-5l-8 8-7-1z" cc="af"/><path d="M623 250l3 4-1 2-3 1v3h4l1-1h8l6 6 1-3h5v-3l-5-5 1-3h6l7-15-4-3-2-6 10-1-6-8h-3l-1 1h-1l-5 4 1 3-2 2-2 10-7 4-1 4-10 4z" cc="pk"/><path d="M671 243l1 4 8 3 13 1-1-3-8-2-8-4-5 1z" cc="np"/><path d="M695 248l2 2h5v-3l-7 1z" cc="bt"/><path d="M696 253l-2 2 4 7v6h4l3-2 1 1 1 3 1-1v-3l-1-1-1-3h-3v-2l1-2v-1h-4l-4-4z" cc="bd"/><path d="M740 299l5 5 7-6 1-9-4 3-2-1h-3l-1-2h-1l-2 4v1l2 1v4h-2z" cc="kh"/><path d="M735 263l-2 1-2 6 3 4v5l6-2 7 8v5l2 1 4-3v-3l-12-11v-2l2-1-1-2-5-1-2-5z" cc="la"/><path d="M745 304l1 2v2l4 1 3-5 4-1 2-5-1-9-4-5-4-3-5-8 4-6-5-6h-4l-4 2 1 4 5 1 1 4-1 1v1l11 11 1 3-1 11-8 5z" cc="vn"/><path d="M555 204l4 4 4 2h2l5-1 1-2-13-4-3 1z" cc="ge"/><path d="M570 210l5 6-2 2-3-1-5-4 1-2 4-1z" cc="am"/><path d="M571 208l-1 1 5 7 2-1 2 3 2-5h3l-1-1-4-4-1 2-7-2z" cc="az"/><path d="M570 218l-2 1 1 2 1 2 5 6v3h-1l-1 2 3 4h3l6 8h3l2 2v3l10 6h4l2-2h3l1 4 11 1v-3l4-2v-1l-3-4-6-5 3-3v-1l-4-1-2-13v-4l-11-4-5 1-3 4-2-1-1 1h-5l-7-5-2-3h-2l-2 3-3-1z" cc="ir"/><path d="M598 281l8-4 1-7-2-1 1-6 2-1 1 2 9 5v3l-11 16h-5l-4-7z" cc="om"/><path d="M594 265l1 3 10 1v-7l2-1 1-2h-3l-4 6h-7z" cc="ae"/><path d="M593 259l-1 4 2 1h1l1-5-2-1-1 1z" cc="qa"/><path d="M583 247l-2-1-2 2 1 3 3 1v-5z" cc="kw"/><path d="M584 253l7 10 2 2 1 4 11 1 1 1-1 5-7 4-10 3-6 6-6-4-4 3-6-9-4-1-1-2v-5l-14-17-1-3h4l5-4v-2l-1-1 3-3 6 1 10 8h6v1l5 2z" cc="sa"/><path d="M547 229l-1 3 3 1v7h3l3-2h1l6-6 1-7-12 1-2 3h-2z" cc="sy"/><path d="M564 225l-1 8-7 5 1 3h6l10 8h6v-2l2-2 3 2v-1l-5-7h-3l-4-5 1-3h1l1-2-5-5-6 1z" cc="iq"/><path d="M549 241l-3 8v2h4l5-4v-2l-2-1 3-3v-2h-1l-3 2h-3z" cc="jo"/><path d="M546 232v2l-1 3 3 1v-5l-2-1z" cc="lb"/><path d="M545 238l-1 5 2 6 2-9v-2h-3z" cc="il"/><path d="M543 230l1 1-3 3h-2l-2-1 1-1 2-1 3-1z" cc="cy"/><path d="M515 102l2-1v-2l-1-1v-2h1v-1l-4-1-8 1v3l-2-1-1-2h-4v4l-2 1-1-2-7 6 2 1-3 2-6 12-3 2 1 1 2 1-1 2h-3l-2-1-2 3-1 1-1 2-1 1-3 1-2 5 1 8 1 4 2 2h3l5-5 2-3v4l3-5 1-16 2-1 1-9 8-11 3-1 2-2 5 1 3 2 1-5 5-3 2 5z" cc="no"/><g cc="se"><path d="M498 105l2 1h3l2 4 1 7-5 3v4l-4 5h-2l-2 5v4l5 4-1 2-2 2-2 3v8l-4 1-2 3h-2l-1-5-5-7 4-7 1-15 2-2 1-9 7-10 4-1zM498 150l-2 2 1 2 2-2-1-2z"/></g><path d="M507 117l2 1 1 2-1 2-7 7-1 4 2 5 5 4 6-3 6-1 5-8-4-9-4-8 1-6h-2l-1-4-3-5-3 3-1 5-4-2-5-1-1 1 2 2h4l2 4 1 7z" cc="fi"/><path d="M518 151l-7-1v4l7 4 2-1v-3l-2-3z" cc="lv"/><path d="M511 155h-2l-3 2h-3v4l-1 3h7l1 1h4l3-4v-3l-6-3z" cc="lt"/><path d="M511 166l1 3v5l3-2 4 1 3 1h7l2-5 1-2v-1l-4-6-4-2h-3l-3 1v2l-4 5h-3z" cc="by"/><path d="M511 175l1 1 1 2-1 2-2 3h-4l-2 1-3-1-5-4-5-2-2-3v-7l4-3 4-1h2l-1 1h1l8 1h2l2 4v6z" cc="pl"/><path d="M470 168l-4 3h1v3l-1-1-1-1-3 4 4 1 1 1h1l1-3 2-1-1-6z" cc="nl"/><path d="M462 177l-1 1 7 5h2v-2l-2-2h-1l-1-2h-4z" cc="be"/><path d="M471 168l4-1v-2l3-1 1 2h2l3-1 2 1 2 1 1 7 2 3-3 1-5 2 1 1 4 4v2l-4 2h-4l-1 2h-2v-2l-4-1v-3l-2-2v-2l-2-2v-4l3-1-1-6z" cc="de"/><g cc="dk"><path d="M477 152l-4 4-1 3 2 5 3-1v-4l2-2v-2l-1-3h-1zM481 160l-2 1v1l3 1v-2l-1-1z"/></g><path d="M473 189l-4 5h1l2 2 3-1 2 2v-1l3-3-1-1h-2l-1-2-3-1z" cc="ch"/><path d="M488 185h5l2 2 5-4-5-3-4-2h-3l-4 3 4 4z" cc="cz"/><path d="M496 187l1 1v1h7l6-3v-2h-1l-2-1h-1l-2 1-4-1-4 4z" cc="sk"/><path d="M481 190l-1 1 1 1h4l2 2 5-1 3-2 1-1v-2l-3-2h-4l-1 2-4 2h-3z" cc="at"/><path d="M497 190l-1 1v3l2 1h5l8-6v-2h-1l-5 2-8 1z" cc="hu"/><path d="M495 192l-3 2-4 1v2h4l3-2v-3z" cc="si"/><path d="M496 195l-4 3h-3l-1 3h2l1-1 1 1 1 4 7 3 1-1-8-7 1-2h7l1-2h-5l-1-1z" cc="hr"/><path d="M495 199l-1 1 7 6 3-3v-2l-3-2h-6z" cc="ba"/><path d="M516 173l-3 2v3l-2 6v2l1 1h8l2-2 3 1 3 5-2 4 3 1 4-4h2l2 2-2 2 3 4h2l2-3h3v-2l-6-1 1-2h5l5-5 2-2 1-7-11-1-4-6-3-1h-4l-2 4h-7l-3-1h-3z" cc="ua"/><path d="M521 188l3 4v3h1l2-4-3-4-2-1-1 2z" cc="md"/><path d="M512 188v1l-6 5 5 7 3 2h6l1-1 3-1 2 1 3-3-1-2-3-1h-2v-3l-3-5h-8z" cc="ro"/><path d="M506 195l-2 1h-1l-1 2 2 3v2l-3 4 1 2h2l1-2h1l1 1 4-1-1-5-4-7z" cc="rs"/><path d="M511 202l1 5 1 4h7l2-2 3-1v-5l-1-1h-2l-2 2h-6l-3-2z" cc="bg"/><path d="M504 210v4l1 3h1l2-3-1-2v-3l-2-1-1 2z" cc="al"/><path d="M511 208l-3 1v3l1 1 4-2-2-3z" cc="mk"/></svg>